<svg xmlns="http://www.w3.org/2000/svg" version="1.1" xmlns:xlink="http://www.w3.org/1999/xlink" xmlns:svgjs="http://svgjs.dev/svgjs" width="100%" height="100%" viewBox="0 0 1000 600"><rect width="1000" height="600" x="0" y="0" fill="#ffffff"/><g><rect width="333.3333333333333" height="333.3333333333333" rx="13.333333333333334" ry="13.333333333333334" y="221.6359981709967" fill="#8d87fb" transform="matrix(0.6268373302034997,0,0,0.6268373302034997,0,56.59739551513019)" x="199.41378784179688"/><path d="M349.62468296674814 313.3026587401446Q374.1663328772799 313.3026587401446 392.13165759863136 322.44972923054985Q410.0969823199829 331.5967997209551 419.66254623151775 348.57567566392953Q429.25800253027626 365.5844439941276 429.25800253027626 388.63147454348194L429.25800253027626 388.63147454348194Q429.25800253027626 411.64861270561283 419.66254623151775 428.53781148691667Q410.0969823199829 445.42701026822044 392.13165759863136 454.3648340480609Q374.1663328772799 463.3026578279013 349.62468296674814 463.3026578279013L349.62468296674814 463.3026578279013L302.90288173634485 463.3026578279013L302.90288173634485 313.3026587401446L349.62468296674814 313.3026587401446ZM349.62468296674814 447.16076872718617Q378.6800833480354 447.16076872718617 393.9550932192677 431.7661893070597Q409.2301030905 416.3716098869332 409.2301030905 388.63147454348194L409.2301030905 388.63147454348194Q409.2301030905 360.6522001022424 393.8355236703735 344.92880442265687Q378.4708366374706 329.20540874307136 349.62468296674814 329.20540874307136L349.62468296674814 329.20540874307136L322.5122877549914 329.20540874307136L322.5122877549914 447.16076872718617L349.62468296674814 447.16076872718617Z " fill="#ffffff" transform="matrix(0.6268373302034997,0,0,0.6268373302034997,0,56.59739551513019)"/><path d="M658.3694036158349 325.77560729334846Q680.5826061008376 325.77560729334846 696.8434278955838 334.054827707978Q713.1042496903299 342.33404812260744 721.7622579670667 357.7020128138152Q730.4473225196682 373.09703378088767 730.4473225196682 393.95742247265025L730.4473225196682 393.95742247265025Q730.4473225196682 414.790754888548 721.7622579670667 430.0775507521613Q713.1042496903299 445.3643466157746 696.8434278955838 453.4541730993505Q680.5826061008376 461.54399958292635 658.3694036158349 461.54399958292635L658.3694036158349 461.54399958292635L616.0804444391489 461.54399958292635L616.0804444391489 325.77560729334846L658.3694036158349 325.77560729334846ZM658.3694036158349 446.9336106159331Q684.6681037564227 446.9336106159331 698.4938607233366 432.99962854556Q712.3196176902507 419.0656464751868 712.3196176902507 393.95742247265025L712.3196176902507 393.95742247265025Q712.3196176902507 368.6327482631953 698.3856356198775 354.4011471583093Q684.4787098253692 340.16954605342335 658.3694036158349 340.16954605342335L658.3694036158349 340.16954605342335L633.8293614064592 340.16954605342335L633.8293614064592 446.9336106159331L658.3694036158349 446.9336106159331ZM800.3877956301822 463.3026575141385Q785.3715625252169 463.3026575141385 773.1962383860558 456.48447599620835Q761.0209142468948 449.6662944782782 754.1215639013702 437.0851262011451Q747.1951572799808 424.53101419987684 747.1951572799808 407.97257337061785L747.1951572799808 407.97257337061785Q747.1951572799808 391.60352647241245 754.3109578324238 379.0494144711442Q761.4267583848668 366.4682461940111 773.6832513516223 359.7582897795402Q785.9668005942425 353.0483333650692 801.1453713543966 353.0483333650692L801.1453713543966 353.0483333650692Q816.3509983904155 353.0483333650692 828.6345476330357 359.7582897795402Q840.8910405997912 366.4682461940111 848.0068411522342 378.941189367685Q855.1226417046771 391.4141325413588 855.1226417046771 407.97257337061785L855.1226417046771 407.97257337061785Q855.1226417046771 424.53101419987684 847.8174472211806 437.0851262011451Q840.5122527376839 449.6662944782782 828.0393095640101 456.48447599620835Q815.5663663903362 463.3026575141385 800.3877956301822 463.3026575141385L800.3877956301822 463.3026575141385ZM800.3877956301822 447.71824261601245Q809.9116047345925 447.71824261601245 818.2990502526812 443.2269008224552Q826.68649577077 438.76261530476285 831.8271881850824 429.7799317176485Q836.9949368752596 420.82430440639894 836.9949368752596 407.97257337061785L836.9949368752596 407.97257337061785Q836.9949368752596 395.12084233483677 831.9354132885416 386.1652150235872Q826.8758897018236 377.18253143647286 818.6778381147885 372.7994147463749Q810.5068428036182 368.4162980562769 800.955977423343 368.4162980562769L800.955977423343 368.4162980562769Q791.2157181120141 368.4162980562769 783.1258916284382 372.7994147463749Q775.0631214207272 377.18253143647286 770.1929917650627 386.1652150235872Q765.3228621093983 395.12084233483677 765.3228621093983 407.97257337061785L765.3228621093983 407.97257337061785Q765.3228621093983 421.0136983374525 770.0847666616036 429.99638192456695Q774.8466712138088 438.9520092358165 782.8553288697902 443.3351259259144Q790.8369302499069 447.71824261601245 800.3877956301822 447.71824261601245L800.3877956301822 447.71824261601245ZM955.447312611364 354.77993502041653L973.1691733028096 354.77993502041653L973.1691733028096 461.54399958292635L955.447312611364 461.54399958292635L955.447312611364 445.77019075374665Q950.387789024646 453.94118606491696 941.3239366099373 458.5136966860685Q932.2600841952285 463.1132635830849 921.3564050217133 463.1132635830849L921.3564050217133 463.1132635830849Q908.8834618480394 463.1132635830849 898.9538086056568 457.9455148929077Q889.0241553632744 452.77776620273045 883.2611686040716 442.442268822376Q877.5252381207334 432.1338277178863 877.5252381207334 417.33404481983945L877.5252381207334 417.33404481983945L877.5252381207334 354.77993502041653L895.0577048811253 354.77993502041653L895.0577048811253 414.98014881960165Q895.0577048811253 430.7539576487814 903.039306261242 439.2496282703293Q911.0209076413587 447.71824261601245 924.8466646082727 447.71824261601245L924.8466646082727 447.71824261601245Q939.0782657131587 447.71824261601245 947.2492610243289 438.9520092358165Q955.447312611364 430.18577585562053 955.447312611364 413.4379410953079L955.447312611364 413.4379410953079L955.447312611364 354.77993502041653ZM1020.8964439283209 374.66629778104624Q1026.3618116530108 365.115432400771 1036.8596466885542 359.0818828829201Q1047.3845379999623 353.0483333650692 1060.8315071047691 353.0483333650692L1060.8315071047691 353.0483333650692Q1075.2525021407087 353.0483333650692 1086.7514193832496 359.8665148829994Q1098.2232803499257 366.68469640092957 1104.8520679368023 379.0494144711442Q1111.4808555236789 391.4141325413588 1111.4808555236789 407.7831794395642L1111.4808555236789 407.7831794395642Q1111.4808555236789 423.9357761308512 1104.8520679368023 436.59811323557864Q1098.2232803499257 449.26045034030614 1086.6431942797904 456.29508206515476Q1075.0631082096552 463.3026575141385 1060.8315071047691 463.3026575141385L1060.8315071047691 463.3026575141385Q1047.005750137855 463.3026575141385 1036.589083929906 457.26910799628763Q1026.1453614460925 451.2085022025719 1020.8964439283209 441.8740870292151L1020.8964439283209 441.8740870292151L1020.8964439283209 461.54399958292635L1003.1745832368754 461.54399958292635L1003.1745832368754 317.3881617752598L1020.8964439283209 317.3881617752598L1020.8964439283209 374.66629778104624ZM1093.3531506942613 407.7831794395642Q1093.3531506942613 395.6890241279976 1088.483021038597 386.73339681674804Q1083.6128913829325 377.7777695054985 1075.333670968303 373.09703378088767Q1067.0544505536736 368.4162980562769 1057.124797311291 368.4162980562769L1057.124797311291 368.4162980562769Q1047.3845379999623 368.4162980562769 1039.1053175853326 373.2052588843469Q1030.8260971707032 377.9671634365521 1025.8747986874446 387.03101585126086Q1020.8964439283209 396.09486826596964 1020.8964439283209 407.97257337061785L1020.8964439283209 407.97257337061785Q1020.8964439283209 420.03967240631965 1025.8747986874446 429.10352482102843Q1030.8260971707032 438.1673772357372 1039.1053175853326 442.92928178794244Q1047.3845379999623 447.71824261601245 1057.124797311291 447.71824261601245L1057.124797311291 447.71824261601245Q1067.0544505536736 447.71824261601245 1075.333670968303 442.92928178794244Q1083.6128913829325 438.1673772357372 1088.483021038597 429.10352482102843Q1093.3531506942613 420.03967240631965 1093.3531506942613 407.7831794395642L1093.3531506942613 407.7831794395642ZM1184.3434064275914 369.3903239874098L1156.475442286845 369.3903239874098L1156.475442286845 432.3232216489399Q1156.475442286845 440.11542909800295 1159.8033642182158 443.3351259259144Q1163.1042298737216 446.55482275382593 1171.275225184892 446.55482275382593L1171.275225184892 446.55482275382593L1184.3434064275914 446.55482275382593L1184.3434064275914 461.54399958292635L1168.3531473914932 461.54399958292635Q1153.5533644934467 461.54399958292635 1146.1670011823553 454.7258180649962Q1138.7535815953997 447.90763654706603 1138.7535815953997 432.3232216489399L1138.7535815953997 432.3232216489399L1138.7535815953997 369.3903239874098L1124.9278246284857 369.3903239874098L1124.9278246284857 354.77993502041653L1138.7535815953997 354.77993502041653L1138.7535815953997 327.9130530866679L1156.475442286845 327.9130530866679L1156.475442286845 354.77993502041653L1184.3434064275914 354.77993502041653L1184.3434064275914 369.3903239874098ZM1211.4267385682588 462.70741944511286Q1206.3401587056755 462.70741944511286 1202.8498991191163 459.2171598585534Q1199.332583256692 455.6998439961291 1199.332583256692 450.64032040941106L1199.332583256692 450.64032040941106Q1199.332583256692 445.580796822693 1202.8498991191163 442.0634809602687Q1206.3401587056755 438.54616509784444 1211.4267385682588 438.54616509784444L1211.4267385682588 438.54616509784444Q1216.296868223923 438.54616509784444 1219.705958982888 442.0634809602687Q1223.1150497418532 445.580796822693 1223.1150497418532 450.64032040941106L1223.1150497418532 450.64032040941106Q1223.1150497418532 455.6998439961291 1219.705958982888 459.2171598585534Q1216.296868223923 462.70741944511286 1211.4267385682588 462.70741944511286L1211.4267385682588 462.70741944511286ZM1255.8260872623994 337.4639184669431Q1250.7665636756813 337.4639184669431 1247.249247813257 333.9466026045188Q1243.7589882266973 330.42928674209446 1243.7589882266973 325.36976315537646L1243.7589882266973 325.36976315537646Q1243.7589882266973 320.3102395686584 1247.249247813257 316.7929237062341Q1250.7665636756813 313.30266411967466 1255.8260872623994 313.30266411967466L1255.8260872623994 313.30266411967466Q1260.6962169180636 313.30266411967466 1264.1053076770288 316.7929237062341Q1267.5143984359936 320.3102395686584 1267.5143984359936 325.36976315537646L1267.5143984359936 325.36976315537646Q1267.5143984359936 330.42928674209446 1264.1053076770288 333.9466026045188Q1260.6962169180636 337.4639184669431 1255.8260872623994 337.4639184669431L1255.8260872623994 337.4639184669431ZM1246.681066020096 354.77993502041653L1264.4029267115413 354.77993502041653L1264.4029267115413 461.54399958292635L1246.681066020096 461.54399958292635L1246.681066020096 354.77993502041653ZM1341.1615813399856 463.3026575141385Q1326.1453482350205 463.3026575141385 1313.9700240958593 456.48447599620835Q1301.7946999566982 449.6662944782782 1294.8953496111737 437.0851262011451Q1287.9689429897842 424.53101419987684 1287.9689429897842 407.97257337061785L1287.9689429897842 407.97257337061785Q1287.9689429897842 391.60352647241245 1295.0847435422272 379.0494144711442Q1302.2005440946702 366.4682461940111 1314.4570370614258 359.7582897795402Q1326.740586304046 353.0483333650692 1341.946213340065 353.0483333650692L1341.946213340065 353.0483333650692Q1357.124784100219 353.0483333650692 1369.4083333428391 359.7582897795402Q1381.6648263095947 366.4682461940111 1388.7806268620377 378.941189367685Q1395.8964274144805 391.4141325413588 1395.8964274144805 407.97257337061785L1395.8964274144805 407.97257337061785Q1395.8964274144805 424.53101419987684 1388.591232930984 437.0851262011451Q1381.2860384474873 449.6662944782782 1368.8130952738136 456.48447599620835Q1356.3401521001394 463.3026575141385 1341.1615813399856 463.3026575141385L1341.1615813399856 463.3026575141385ZM1341.1615813399856 447.71824261601245Q1350.712446720261 447.71824261601245 1359.0728359624848 443.2269008224552Q1367.4602814805733 438.76261530476285 1372.628030170751 429.7799317176485Q1377.768722585063 420.82430440639894 1377.768722585063 407.97257337061785L1377.768722585063 407.97257337061785Q1377.768722585063 395.12084233483677 1372.709198998345 386.1652150235872Q1367.6496754116272 377.18253143647286 1359.4786801004568 372.7994147463749Q1351.2806285134216 368.4162980562769 1341.7297631331464 368.4162980562769L1341.7297631331464 368.4162980562769Q1331.9895038218176 368.4162980562769 1323.9267336141068 372.7994147463749Q1315.8369071305308 377.18253143647286 1310.9667774748661 386.1652150235872Q1306.096647819202 395.12084233483677 1306.096647819202 407.97257337061785L1306.096647819202 407.97257337061785Q1306.096647819202 421.0136983374525 1310.858552371407 429.99638192456695Q1315.647513199477 438.9520092358165 1323.6291145795938 443.3351259259144Q1331.6107159597102 447.71824261601245 1341.1615813399856 447.71824261601245L1341.1615813399856 447.71824261601245Z " fill="#8d87fb" transform="matrix(0.6268373302034997,0,0,0.6268373302034997,0,56.59739551513019)"/></g></svg>